<svg width="104" height="38" viewBox="0 0 104 38" fill="none" xmlns="http://www.w3.org/2000/svg">
<g clip-path="url(#clip0_232_125)">
<path d="M20.7145 1.70893e-05C21.2564 0.0772046 21.8044 0.154392 22.3464 0.237517C24.3636 0.54033 26.2785 1.1697 28.091 2.09595C31.8305 4.0197 34.6546 6.83408 36.5394 10.551C38.1833 13.7869 38.8276 17.2306 38.4543 20.8288C37.9123 26.0181 35.588 30.2991 31.5234 33.6478C28.8979 35.815 25.8751 37.1628 22.5029 37.7269C19.4138 38.2435 16.3729 38.0416 13.3861 37.0856C9.33356 35.7913 6.06381 33.4222 3.57084 30.02C1.87273 27.7044 0.788837 25.1156 0.270974 22.2953C0.174628 21.7728 0.132476 21.2385 0.0662382 20.71C0.0541949 20.615 0.0240866 20.52 0 20.425C0 19.475 0 18.525 0 17.575C0.0602165 17.1356 0.120433 16.6963 0.186671 16.2569C0.541949 13.8106 1.34885 11.5188 2.62544 9.39314C4.48011 6.29377 7.02125 3.89502 10.2368 2.19689C12.0915 1.2172 14.0545 0.56408 16.138 0.237517C16.698 0.148455 17.2641 0.0772046 17.8301 -0.00592041C18.7876 1.70893e-05 19.751 1.70893e-05 20.7145 1.70893e-05ZM19.2512 35.7081C28.4945 35.7438 36.1841 28.3872 36.2323 19.0772C36.2744 9.76127 28.7173 2.33345 19.3958 2.26814C9.88756 2.20283 2.3364 9.70189 2.29425 18.905C2.25812 28.215 9.84541 35.7081 19.2512 35.7081Z" fill="white"/>
<path d="M67.2738 18.2341C66.774 18.2341 66.3224 18.2341 65.8467 18.2341C65.8467 14.8082 65.8467 11.3941 65.8467 7.95629C65.9611 7.95035 66.0695 7.94442 66.1779 7.94442C67.3641 7.94442 68.5444 7.91473 69.7306 7.95629C70.4051 7.98004 71.0976 8.04535 71.7479 8.2116C73.8194 8.7341 74.6142 10.2719 74.4576 12.1838C74.2951 14.2025 72.9884 15.1763 71.1758 15.4257C70.1401 15.5682 69.0743 15.5266 68.0265 15.5622C67.7856 15.5682 67.5448 15.5622 67.2738 15.5622C67.2738 16.4469 67.2738 17.3197 67.2738 18.2341ZM67.2738 14.2619C67.9061 14.2619 68.5263 14.2797 69.1405 14.256C69.7969 14.2322 70.4653 14.2144 71.1156 14.1135C72.1754 13.9472 72.7896 13.3297 72.9522 12.3144C73.0064 11.9879 73.0004 11.6435 72.9643 11.311C72.886 10.545 72.5307 9.93348 71.7901 9.61879C71.4649 9.47629 71.1036 9.3516 70.7543 9.33379C69.6162 9.28035 68.4721 9.28035 67.334 9.26254C67.316 9.26254 67.3039 9.28035 67.2738 9.29817C67.2738 10.9369 67.2738 12.5816 67.2738 14.2619Z" fill="white"/>
<path d="M97.5027 9.25066C97.5027 10.2778 97.5027 11.2575 97.5027 12.2728C99.0322 12.2728 100.562 12.2728 102.139 12.2728C102.103 12.6885 102.085 13.0685 102.031 13.4485C102.025 13.5078 101.85 13.5791 101.76 13.5791C100.785 13.591 99.8151 13.585 98.8395 13.585C98.406 13.585 97.9784 13.585 97.5208 13.585C97.5208 14.7013 97.5208 15.8057 97.5208 16.9516C99.6585 16.9516 101.808 16.9516 104 16.9516C103.964 17.4028 103.928 17.8125 103.892 18.2341C101.284 18.2341 98.701 18.2341 96.0876 18.2341C96.0876 14.8141 96.0876 11.4 96.0876 7.96222C98.7251 7.96222 101.345 7.96222 104.006 7.96222C103.976 8.34816 103.964 8.71628 103.91 9.08441C103.904 9.14972 103.753 9.23878 103.663 9.24472C103.061 9.25659 102.459 9.25066 101.856 9.25066C100.514 9.25066 99.1647 9.25066 97.8219 9.25066C97.7255 9.25066 97.6292 9.25066 97.5027 9.25066Z" fill="white"/>
<path d="M74.5842 18.246C75.1262 16.91 75.638 15.6394 76.1559 14.3628C76.9688 12.356 77.7817 10.3432 78.5886 8.33035C78.6669 8.13441 78.7572 8.05128 78.974 8.05722C79.2811 8.06316 79.5942 8.03347 79.9074 8.00972C80.082 7.99191 80.1723 8.04535 80.2446 8.21753C81.5633 11.4891 82.8821 14.7547 84.2068 18.0203C84.2309 18.0797 84.243 18.151 84.2731 18.246C83.8094 18.246 83.3698 18.2578 82.9302 18.2341C82.858 18.2282 82.7616 18.1153 82.7255 18.0322C82.4545 17.385 82.1956 16.7319 81.9427 16.0788C81.8765 15.9066 81.7861 15.8353 81.5934 15.8353C80.1603 15.8413 78.7211 15.8413 77.288 15.8353C77.0953 15.8353 77.0049 15.9007 76.9387 16.0728C76.6918 16.72 76.4269 17.3613 76.18 18.0085C76.1137 18.1807 76.0355 18.2578 75.8367 18.246C75.4333 18.2341 75.0359 18.246 74.5842 18.246ZM81.3164 14.535C80.6842 12.9735 80.076 11.4653 79.4317 9.86816C78.7873 11.4772 78.1792 12.9972 77.5589 14.535C78.8175 14.535 80.0399 14.535 81.3164 14.535Z" fill="white"/>
<path d="M64.51 18.246C64.0644 18.246 63.6368 18.2578 63.2033 18.2341C63.119 18.2282 63.0106 18.1153 62.9745 18.0263C62.7035 17.3791 62.4385 16.726 62.1916 16.0728C62.1254 15.8947 62.029 15.8353 61.8424 15.8353C60.4092 15.8413 58.9761 15.8413 57.5429 15.8353C57.3502 15.8353 57.2599 15.9007 57.1937 16.0728C56.9468 16.72 56.6818 17.3613 56.4349 18.0085C56.3687 18.1807 56.2904 18.2578 56.0917 18.2519C55.6943 18.2341 55.2908 18.246 54.8452 18.246C55.062 17.6938 55.2667 17.1832 55.4715 16.6785C56.5915 13.9057 57.7175 11.1388 58.8316 8.36597C58.9159 8.15816 59.0062 8.04535 59.2531 8.05129C59.5722 8.06316 59.8914 8.00972 60.2165 8.01566C60.3069 8.01566 60.4454 8.09878 60.4755 8.17597C61.8243 11.495 63.1671 14.8141 64.51 18.1332C64.51 18.1569 64.51 18.1747 64.51 18.246ZM59.6806 9.86816C59.0363 11.4653 58.4281 12.9913 57.8139 14.5291C59.0845 14.5291 60.3008 14.5291 61.5654 14.5291C60.9391 12.9853 60.3309 11.4653 59.6806 9.86816Z" fill="white"/>
<path d="M93.9197 16.3877C94.0763 16.8033 94.2208 17.2011 94.3774 17.6108C93.6909 17.9255 92.9864 18.1274 92.2577 18.2105C91.0654 18.3471 89.8792 18.3708 88.6989 18.1155C86.4529 17.6286 84.9776 15.9305 84.8451 13.6624C84.7788 12.558 84.8812 11.4833 85.4051 10.4917C86.0976 9.17362 87.2477 8.41956 88.6809 8.10487C90.4392 7.71893 92.1855 7.86143 93.9077 8.38393C93.9378 8.38987 93.9619 8.41362 94.0161 8.4433C93.9257 8.84705 93.8354 9.25674 93.7391 9.67237C93.1851 9.56549 92.6491 9.44674 92.1072 9.36362C90.9691 9.17955 89.831 9.12612 88.711 9.46455C87.4223 9.85643 86.6576 10.7055 86.3987 12.0117C86.2421 12.8014 86.2421 13.5852 86.4348 14.3689C86.7901 15.8236 87.8439 16.7261 89.4215 16.9339C90.8547 17.1239 92.2577 16.9696 93.6247 16.4946C93.709 16.4471 93.7993 16.4233 93.9197 16.3877Z" fill="white"/>
<path d="M53.6228 8.43721C53.5325 8.8469 53.4422 9.25659 53.3518 9.6544C52.6594 9.52971 51.997 9.39315 51.3286 9.29815C50.347 9.15565 49.3715 9.15565 48.4081 9.42878C46.9629 9.83253 46.0416 10.9072 45.9573 12.3857C45.9211 13.0388 45.9271 13.7157 46.0536 14.3569C46.3426 15.77 47.3061 16.5716 48.7092 16.8566C50.2387 17.1653 51.738 16.9813 53.2073 16.4944C53.2856 16.4707 53.3579 16.435 53.4301 16.4113C53.4482 16.4053 53.4723 16.4053 53.5265 16.3994C53.677 16.7913 53.8215 17.195 53.9781 17.6107C53.111 18.0025 52.2258 18.2044 51.3105 18.2638C50.2386 18.335 49.1668 18.3469 48.113 18.0619C45.879 17.4503 44.5903 15.9007 44.4398 13.6207C44.3675 12.5282 44.488 11.4653 45.0058 10.4797C45.6863 9.19128 46.8003 8.44909 48.1973 8.12253C49.9857 7.7069 51.7621 7.85534 53.5084 8.37784C53.5506 8.38378 53.5686 8.40753 53.6228 8.43721Z" fill="white"/>
<path d="M18.613 33.3331C14.4942 33.2263 10.6042 31.3619 7.66566 27.6331C6.2024 25.7806 5.29313 23.6728 4.91377 21.3572C4.46214 18.6319 4.7572 15.9838 5.86519 13.4306C7.35856 9.98689 9.8455 7.4872 13.2839 5.9197C15.3373 4.98157 17.5111 4.56001 19.7692 4.65501C23.1895 4.79751 26.2124 5.95532 28.8137 8.17595C30.3312 9.47032 31.5114 11.0081 32.3906 12.7834C32.7037 13.4128 32.6194 13.9353 32.1738 14.2916C31.5596 14.7844 30.7166 14.5944 30.3613 13.8581C29.5785 12.2491 28.5006 10.8597 27.1096 9.7197C25.3332 8.26501 23.2979 7.36845 21.0097 7.05376C19.1971 6.80439 17.4147 6.92907 15.6624 7.46345C13.6331 8.08095 11.8868 9.14376 10.4236 10.6578C8.56289 12.5756 7.44286 14.8675 7.12974 17.4978C6.72629 20.9356 7.62351 24.0291 9.86959 26.7069C11.7664 28.9631 14.1992 30.3822 17.1197 30.8631C21.1241 31.5222 24.6588 30.4831 27.6696 27.7638C28.6391 26.885 29.4159 25.8638 30.0482 24.7297C30.3252 24.2309 30.7828 23.9934 31.2826 24.0706C31.7764 24.1478 32.1858 24.5278 32.228 25.0503C32.2521 25.2997 32.1858 25.5906 32.0594 25.8103C30.4516 28.6959 28.1152 30.8156 25.0502 32.1456C23.2136 32.9472 21.2806 33.3213 18.613 33.3331Z" fill="white"/>
<path d="M45.1203 21.3572C45.4094 21.1316 45.7947 21.0128 46.2584 21.0128C46.6197 21.0128 46.975 21.0841 47.246 21.2147L47.1195 21.4997C46.8726 21.3988 46.5776 21.3394 46.2705 21.3394C45.8971 21.3394 45.59 21.4403 45.3792 21.6184C45.1444 21.8144 45.0119 22.1172 45.0119 22.4675C45.0119 22.7822 45.1143 23.0494 45.313 23.2394C45.5298 23.465 45.873 23.5956 46.2705 23.5956C46.5896 23.5956 46.8726 23.5363 47.1195 23.4353L47.246 23.7144C46.987 23.845 46.6257 23.9222 46.2584 23.9222C45.7466 23.9222 45.3251 23.7797 45.03 23.5066C44.7711 23.2572 44.6145 22.9069 44.6145 22.4675C44.6145 21.9806 44.8012 21.6006 45.1203 21.3572Z" fill="white"/>
<path d="M49.3777 21.0663L50.6724 23.8807H50.2508L49.9979 23.3344H48.2215L47.9686 23.8807H47.5652L48.8598 21.0663H49.3777ZM48.3661 23.0019H49.8474L49.1429 21.4285H49.0646L48.3661 23.0019Z" fill="white"/>
<path d="M51.708 21.0663L52.7377 23.5007L53.7734 21.0663H54.3575V23.8807H53.9661V21.5413H53.948L52.9484 23.8807H52.5028L51.5092 21.5413H51.4852V23.8807H51.1118V21.0663H51.708Z" fill="white"/>
<path d="M56.6096 21.0663L57.9043 23.8807H57.4828L57.2299 23.3344H55.4535L55.2006 23.8807H54.7971L56.0918 21.0663H56.6096ZM55.604 23.0019H57.0853L56.3808 21.4285H56.3025L55.604 23.0019Z" fill="white"/>
<path d="M59.7589 21.0663C60.0901 21.0663 60.3611 21.1672 60.5478 21.3572C60.7043 21.5235 60.7946 21.7491 60.7946 22.0341C60.7946 22.2775 60.6983 22.5091 60.5357 22.6813C60.4333 22.7882 60.2888 22.8832 60.1262 22.9366L60.7284 23.8866H60.2888L59.7469 23.0019H58.7413V23.8866H58.3499V21.0722H59.7589V21.0663ZM60.2527 21.5888C60.1443 21.4641 59.9757 21.3988 59.7589 21.3988H58.7473V22.6694H59.7529C59.9456 22.6694 60.1202 22.61 60.2346 22.4913C60.343 22.3844 60.4032 22.23 60.4032 22.0341C60.3972 21.85 60.349 21.6957 60.2527 21.5888Z" fill="white"/>
<path d="M62.9505 21.0663L64.2451 23.8807H63.8236L63.5707 23.3344H61.7943L61.5414 23.8807H61.1379L62.4326 21.0663H62.9505ZM61.9448 23.0019H63.4262L62.7216 21.4285H62.6434L61.9448 23.0019Z" fill="white"/>
<path d="M66.1902 23.0791V23.8807H65.7927V21.0663H67.1837C67.5149 21.0663 67.7919 21.1791 67.9786 21.381C68.1412 21.5472 68.2375 21.7907 68.2375 22.0697C68.2375 22.3666 68.1291 22.6041 67.9485 22.7763C67.7498 22.9663 67.4607 23.0732 67.1356 23.0791H66.1902ZM67.6895 21.6066C67.5691 21.47 67.3945 21.3928 67.1536 21.3928H66.1902V22.7466H67.1175C67.3282 22.7466 67.5089 22.6872 67.6353 22.5744C67.7618 22.4557 67.8401 22.2835 67.8401 22.0697C67.8401 21.8797 67.7859 21.7253 67.6895 21.6066Z" fill="white"/>
<path d="M70.0379 21.0663L71.3325 23.8807H70.911L70.6581 23.3344H68.8817L68.6288 23.8807H68.2253L69.52 21.0663H70.0379ZM69.0262 23.0019H70.5076L69.803 21.4285H69.7247L69.0262 23.0019Z" fill="white"/>
<path d="M73.1812 21.0663C73.5124 21.0663 73.7834 21.1672 73.97 21.3572C74.1266 21.5235 74.2169 21.7491 74.2169 22.0341C74.2169 22.2775 74.1206 22.5091 73.958 22.6813C73.8556 22.7882 73.7111 22.8832 73.5485 22.9366L74.1507 23.8866H73.7111L73.1692 23.0019H72.1635V23.8866H71.7661V21.0722H73.1812V21.0663ZM73.675 21.5888C73.5666 21.4641 73.398 21.3988 73.1812 21.3988H72.1696V22.6694H73.1752C73.3679 22.6694 73.5425 22.61 73.6569 22.4913C73.7653 22.3844 73.8255 22.23 73.8255 22.0341C73.8255 21.85 73.7773 21.6957 73.675 21.5888Z" fill="white"/>
<path d="M76.3787 21.0663L77.6733 23.8807H77.2518L76.9989 23.3344H75.2225L74.9696 23.8807H74.5662L75.8608 21.0663H76.3787ZM75.367 23.0019H76.8484L76.1438 21.4285H76.0655L75.367 23.0019Z" fill="white"/>
<path d="M79.4677 22.2478H80.5878V23.8806H80.3288L80.2445 23.6906C79.9856 23.8331 79.6544 23.9341 79.2871 23.9341C78.8114 23.9341 78.42 23.7797 78.161 23.4947C77.9322 23.2453 77.8118 22.9009 77.8118 22.4794C77.8118 22.0222 77.9804 21.66 78.2694 21.4047C78.5524 21.1553 78.9619 21.0187 79.4557 21.0187C79.829 21.0187 80.1903 21.0959 80.4493 21.2325L80.3228 21.5115C80.0759 21.4106 79.7688 21.3512 79.4497 21.3512C79.0643 21.3512 78.7572 21.4581 78.5464 21.6481C78.3176 21.8441 78.1972 22.135 78.1972 22.4853C78.1972 22.7822 78.2754 23.0553 78.4561 23.2572C78.6307 23.4709 78.9137 23.6134 79.2991 23.6134C79.6424 23.6134 79.9133 23.5362 80.2024 23.4056V22.5803L79.4677 22.5447V22.2478Z" fill="white"/>
<path d="M81.1719 21.0663H81.5693V22.6872C81.5693 23.0078 81.6536 23.2335 81.8102 23.3819C81.9607 23.5363 82.1835 23.6075 82.4545 23.6075C82.7255 23.6075 82.9483 23.5422 83.0988 23.3938C83.2554 23.2513 83.3457 23.0197 83.3457 22.6932V21.0722H83.7371V22.6813C83.7371 23.0969 83.6106 23.4057 83.3939 23.6135C83.1711 23.8272 82.8459 23.94 82.4545 23.94C82.0751 23.94 81.762 23.8391 81.5392 23.6372C81.3043 23.4235 81.1719 23.1088 81.1719 22.6813V21.0663Z" fill="white"/>
<path d="M85.8086 21.0663L87.1033 23.8807H86.6818L86.4288 23.3344H84.6525L84.3995 23.8807H83.9961L85.2907 21.0663H85.8086ZM84.797 23.0019H86.2783L85.5738 21.4285H85.4955L84.797 23.0019Z" fill="white"/>
<path d="M88.3377 23.8807V23.2275L87.0671 21.0663H87.5127L88.5184 22.8297H88.5485L89.5601 21.0663H89.9937L88.7291 23.2216V23.8807H88.3377Z" fill="white"/>
<path d="M91.7761 21.0663L93.0708 23.8807H92.6493L92.3964 23.3344H90.62L90.3671 23.8807H89.9636L91.2583 21.0663H91.7761ZM90.7705 23.0019H92.2519L91.5473 21.4285H91.469L90.7705 23.0019Z" fill="white"/>
<path d="M95.7384 21.0663C96.2322 21.0663 96.5995 21.1791 96.8524 21.4047C97.1114 21.6422 97.2378 21.9985 97.2378 22.4735C97.2378 22.9485 97.1114 23.3047 96.8585 23.5422C96.6116 23.7738 96.2382 23.8807 95.7384 23.8807H94.6184V21.0663H95.7384ZM96.5754 21.6541C96.4008 21.4819 96.1238 21.3988 95.7505 21.3988H95.0158V23.5541H95.8107C96.1599 23.5541 96.4129 23.465 96.5875 23.2988C96.7681 23.1207 96.8464 22.8475 96.8464 22.4794C96.8404 22.1053 96.7621 21.8322 96.5754 21.6541Z" fill="white"/>
<path d="M97.7256 21.0663H99.9837V21.3928H98.117V22.23H99.779V22.5566H98.117V23.5482H100.05V23.8747H97.7256V21.0663Z" fill="white"/>
<path d="M45.1203 26.3447C45.4094 26.1191 45.7947 26.0003 46.2584 26.0003C46.6197 26.0003 46.975 26.0716 47.246 26.2022L47.1195 26.4872C46.8726 26.3862 46.5776 26.3269 46.2705 26.3269C45.8971 26.3269 45.59 26.4278 45.3792 26.6059C45.1444 26.8019 45.0119 27.1047 45.0119 27.455C45.0119 27.7697 45.1143 28.0369 45.313 28.2269C45.5298 28.4525 45.873 28.5831 46.2705 28.5831C46.5896 28.5831 46.8726 28.5237 47.1195 28.4228L47.246 28.7019C46.987 28.8325 46.6257 28.9097 46.2584 28.9097C45.7466 28.9097 45.3251 28.7672 45.03 28.4941C44.7711 28.2447 44.6145 27.8944 44.6145 27.455C44.6145 26.9681 44.8012 26.5881 45.1203 26.3447Z" fill="white"/>
<path d="M47.8601 26.3982C48.113 26.1428 48.4803 26.0063 48.938 26.0063C49.3715 26.0063 49.7328 26.131 49.9857 26.3685C50.2567 26.6178 50.4072 26.986 50.4072 27.4669C50.4072 27.8944 50.2868 28.2329 50.07 28.4822C49.8171 28.7732 49.4317 28.9275 48.938 28.9275C48.4863 28.9275 48.113 28.791 47.8601 28.5416C47.6011 28.2922 47.4626 27.93 47.4626 27.4669C47.4687 27.0097 47.6072 26.6475 47.8601 26.3982ZM49.7208 26.6C49.5341 26.4219 49.2752 26.3269 48.938 26.3269C48.6007 26.3269 48.3358 26.4219 48.1551 26.606C47.9624 26.796 47.8661 27.081 47.8661 27.455C47.8661 27.8053 47.9504 28.0785 48.125 28.2685C48.3057 28.4763 48.5887 28.5832 48.944 28.5832C49.3053 28.5832 49.5823 28.4763 49.7689 28.2625C49.9315 28.0725 50.0218 27.7994 50.0218 27.4491C50.0158 27.0869 49.9074 26.796 49.7208 26.6Z" fill="white"/>
<path d="M51.4912 26.0538L52.5209 28.4881L53.5566 26.0538H54.1407V28.8681H53.7493V26.5288H53.7312L52.7316 28.8681H52.286L51.2924 26.5288H51.2684V28.8681H50.895V26.0538H51.4912Z" fill="white"/>
<path d="M54.7549 26.0538H57.013V26.3803H55.1463V27.2175H56.8083V27.5441H55.1463V28.5356H57.0792V28.8622H54.7549V26.0538Z" fill="white"/>
<path d="M59.0001 26.0538C59.3313 26.0538 59.6023 26.1547 59.789 26.3447C59.9455 26.511 60.0359 26.7366 60.0359 27.0216C60.0359 27.265 59.9395 27.4966 59.7769 27.6688C59.6746 27.7756 59.53 27.8706 59.3675 27.9241L59.9696 28.8741H59.53L58.9881 27.9894H57.9885V28.8741H57.5911V26.0597H59.0001V26.0538ZM59.4939 26.5763C59.3855 26.4516 59.2169 26.3863 59.0001 26.3863H57.9885V27.6569H58.9941C59.1868 27.6569 59.3614 27.5975 59.4758 27.4788C59.5842 27.3719 59.6444 27.2175 59.6444 27.0216C59.6444 26.8375 59.5963 26.6831 59.4939 26.5763Z" fill="white"/>
<path d="M60.8911 26.3447C61.1801 26.1191 61.5655 26.0003 62.0292 26.0003C62.3905 26.0003 62.7457 26.0716 63.0167 26.2022L62.8903 26.4872C62.6434 26.3862 62.3483 26.3269 62.0412 26.3269C61.6679 26.3269 61.3608 26.4278 61.15 26.6059C60.9152 26.8019 60.7827 27.1047 60.7827 27.455C60.7827 27.7697 60.8851 28.0369 61.0838 28.2269C61.3005 28.4525 61.6438 28.5831 62.0412 28.5831C62.3604 28.5831 62.6434 28.5237 62.8903 28.4228L63.0167 28.7019C62.7578 28.8325 62.3965 28.9097 62.0292 28.9097C61.5173 28.9097 61.0958 28.7672 60.8007 28.4941C60.5418 28.2447 60.3853 27.8944 60.3853 27.455C60.3853 26.9681 60.5719 26.5881 60.8911 26.3447Z" fill="white"/>
<path d="M63.8957 26.0538V28.8681H63.4983V26.0538H63.8957Z" fill="white"/>
<path d="M64.7751 26.3982C65.028 26.1428 65.3953 26.0063 65.853 26.0063C66.2866 26.0063 66.6479 26.131 66.9008 26.3685C67.1717 26.6178 67.3223 26.986 67.3223 27.4669C67.3223 27.8944 67.2018 28.2329 66.9851 28.4822C66.7322 28.7732 66.3468 28.9275 65.853 28.9275C65.4014 28.9275 65.028 28.791 64.7751 28.5416C64.5162 28.2922 64.3777 27.93 64.3777 27.4669C64.3837 27.0097 64.5222 26.6475 64.7751 26.3982ZM66.6358 26.6C66.4491 26.4219 66.1902 26.3269 65.853 26.3269C65.5158 26.3269 65.2508 26.4219 65.0702 26.606C64.8775 26.796 64.7811 27.081 64.7811 27.455C64.7811 27.8053 64.8654 28.0785 65.0401 28.2685C65.2207 28.4763 65.5037 28.5832 65.859 28.5832C66.2203 28.5832 66.4973 28.4763 66.684 28.2625C66.8466 28.0725 66.9369 27.7994 66.9369 27.4491C66.9309 27.0869 66.8285 26.796 66.6358 26.6Z" fill="white"/>
<path d="M68.918 26.0538H71.1761V26.3803H69.3094V27.2175H70.9714V27.5441H69.3094V28.5356H71.2423V28.8622H68.918V26.0538Z" fill="white"/>
<path d="M73.9579 28.5416V28.8681H71.76V26.0538H72.1574V28.5416H73.9579Z" fill="white"/>
<path d="M74.4458 26.0538H76.7039V26.3803H74.8372V27.2175H76.4992V27.5441H74.8372V28.5356H76.7702V28.8622H74.4458V26.0538Z" fill="white"/>
<path d="M77.5288 26.3447C77.8178 26.1191 78.2032 26.0003 78.6669 26.0003C79.0282 26.0003 79.3834 26.0716 79.6544 26.2022L79.528 26.4872C79.2811 26.3862 78.986 26.3269 78.6789 26.3269C78.3056 26.3269 77.9985 26.4278 77.7877 26.6059C77.5529 26.8019 77.4204 27.1047 77.4204 27.455C77.4204 27.7697 77.5227 28.0369 77.7215 28.2269C77.9382 28.4525 78.2815 28.5831 78.6789 28.5831C78.9981 28.5831 79.2811 28.5237 79.528 28.4228L79.6544 28.7019C79.3955 28.8325 79.0342 28.9097 78.6669 28.9097C78.155 28.9097 77.7335 28.7672 77.4384 28.4941C77.1795 28.2447 77.0229 27.8944 77.0229 27.455C77.0229 26.9681 77.2096 26.5881 77.5288 26.3447Z" fill="white"/>
<path d="M79.9735 26.0538H82.7315V26.3803H81.5452V28.8681H81.1478V26.3803H79.9675V26.0538H79.9735Z" fill="white"/>
<path d="M84.5862 26.0538C84.9174 26.0538 85.1884 26.1547 85.3751 26.3447C85.5316 26.511 85.622 26.7366 85.622 27.0216C85.622 27.265 85.5256 27.4966 85.363 27.6688C85.2607 27.7756 85.1161 27.8706 84.9536 27.9241L85.5557 28.8741H85.1161L84.5742 27.9894H83.5686V28.8741H83.1711V26.0597H84.5862V26.0538ZM85.08 26.5763C84.9716 26.4516 84.803 26.3863 84.5862 26.3863H83.5746V27.6569H84.5802C84.7729 27.6569 84.9475 27.5975 85.0619 27.4788C85.1703 27.3719 85.2306 27.2175 85.2306 27.0216C85.2245 26.8375 85.1764 26.6831 85.08 26.5763Z" fill="white"/>
<path d="M86.3567 26.3981C86.6096 26.1428 86.9769 26.0063 87.4345 26.0063C87.8681 26.0063 88.2294 26.131 88.4823 26.3685C88.7533 26.6178 88.9038 26.986 88.9038 27.4669C88.9038 27.8944 88.7834 28.2328 88.5666 28.4822C88.3137 28.7731 87.9283 28.9275 87.4345 28.9275C86.9829 28.9275 86.6096 28.791 86.3567 28.5416C86.0977 28.2922 85.9592 27.93 85.9592 27.4669C85.9653 27.0097 86.1037 26.6475 86.3567 26.3981ZM88.2173 26.6C88.0307 26.4219 87.7717 26.3269 87.4345 26.3269C87.0973 26.3269 86.8324 26.4219 86.6517 26.606C86.459 26.796 86.3627 27.081 86.3627 27.455C86.3627 27.8053 86.447 28.0785 86.6216 28.2685C86.8023 28.4763 87.0853 28.5831 87.4406 28.5831C87.8019 28.5831 88.0789 28.4763 88.2655 28.2625C88.4281 28.0725 88.5184 27.7994 88.5184 27.4491C88.5124 27.0869 88.41 26.796 88.2173 26.6ZM87.6092 25.0385L87.9464 25.1988L87.573 25.8578L87.3141 25.745L87.6092 25.0385Z" fill="white"/>
<path d="M92.0169 26.0538V28.8681H91.6195L89.7768 26.6119V28.8681H89.3975V26.0538H89.7889L91.6375 28.2981V26.0538H92.0169Z" fill="white"/>
<path d="M93.0166 26.0538V28.8681H92.6191V26.0538H93.0166Z" fill="white"/>
<path d="M94.0102 26.3447C94.2992 26.1191 94.6846 26.0003 95.1483 26.0003C95.5096 26.0003 95.8649 26.0716 96.1359 26.2022L96.0094 26.4872C95.7625 26.3862 95.4675 26.3269 95.1603 26.3269C94.787 26.3269 94.4799 26.4278 94.2691 26.6059C94.0343 26.8019 93.9018 27.1047 93.9018 27.455C93.9018 27.7697 94.0042 28.0369 94.2029 28.2269C94.4197 28.4525 94.7629 28.5831 95.1603 28.5831C95.4795 28.5831 95.7625 28.5237 96.0094 28.4228L96.1359 28.7019C95.8769 28.8325 95.5156 28.9097 95.1483 28.9097C94.6365 28.9097 94.2149 28.7672 93.9199 28.4941C93.661 28.2447 93.5044 27.8944 93.5044 27.455C93.5104 26.9681 93.6911 26.5881 94.0102 26.3447Z" fill="white"/>
<path d="M96.75 26.3982C97.0029 26.1428 97.3702 26.0063 97.8278 26.0063C98.2614 26.0063 98.6227 26.131 98.8756 26.3685C99.1466 26.6178 99.2971 26.986 99.2971 27.4669C99.2971 27.8944 99.1767 28.2329 98.9599 28.4822C98.707 28.7732 98.3216 28.9275 97.8278 28.9275C97.3762 28.9275 97.0029 28.791 96.75 28.5416C96.491 28.2922 96.3525 27.93 96.3525 27.4669C96.3646 27.0097 96.5031 26.6475 96.75 26.3982ZM98.6107 26.6C98.424 26.4219 98.1651 26.3269 97.8278 26.3269C97.4906 26.3269 97.2257 26.4219 97.045 26.606C96.8523 26.796 96.756 27.081 96.756 27.455C96.756 27.8053 96.8403 28.0785 97.0149 28.2685C97.1956 28.4763 97.4786 28.5832 97.8339 28.5832C98.1952 28.5832 98.4722 28.4763 98.6588 28.2625C98.8214 28.0725 98.9117 27.7994 98.9117 27.4491C98.9057 27.0869 98.8034 26.796 98.6107 26.6Z" fill="white"/>
<path d="M23.3398 27.1225C23.117 26.6772 23.2736 26.131 23.7011 25.8697C24.9597 25.0919 25.9713 23.9994 26.6457 22.6931C26.8746 22.2478 27.4105 22.0519 27.8802 22.23C28.4342 22.4378 28.681 23.0731 28.4101 23.5956C27.5791 25.2047 26.3266 26.5585 24.773 27.5203C24.2672 27.835 23.5988 27.651 23.3398 27.1225Z" fill="white"/>
<path d="M16.4512 20.1044C17.1163 20.1044 17.6555 19.5727 17.6555 18.9169C17.6555 18.261 17.1163 17.7294 16.4512 17.7294C15.786 17.7294 15.2468 18.261 15.2468 18.9169C15.2468 19.5727 15.786 20.1044 16.4512 20.1044Z" fill="white"/>
<path d="M32.571 20.1044C33.2362 20.1044 33.7754 19.5727 33.7754 18.9169C33.7754 18.261 33.2362 17.7294 32.571 17.7294C31.9059 17.7294 31.3667 18.261 31.3667 18.9169C31.3667 19.5727 31.9059 20.1044 32.571 20.1044Z" fill="white"/>
<path d="M29.5121 18.9347C29.5121 18.9228 29.5121 18.905 29.5121 18.8931C29.4218 13.4366 24.8694 9.02501 19.2994 9.06658C13.7835 9.10814 9.28536 13.5435 9.24321 18.9822C9.20106 24.5278 13.7655 29.0522 19.3777 29.0522C19.9437 29.0522 20.5037 29.0047 21.0577 28.9156C21.1239 28.9097 21.1902 28.8978 21.2504 28.88C21.6599 28.7672 21.967 28.3931 21.973 27.9538C21.973 27.9478 21.973 27.9478 21.973 27.9419C21.973 27.746 21.9128 27.5678 21.8164 27.4135C21.6418 27.1463 21.3347 26.9622 20.9854 26.9622C20.9252 26.9622 20.871 26.9681 20.8168 26.98H20.8108C20.4134 27.0394 19.7931 27.0928 19.3837 27.0928C14.8674 27.0928 11.2002 23.4531 11.2364 18.9941C11.2725 14.6241 14.8915 11.0556 19.3235 11.02C23.4302 10.9903 26.8565 13.971 27.4467 17.86H20.0822C19.486 17.86 18.9983 18.341 18.9983 18.9288C18.9983 19.5166 19.486 19.9975 20.0822 19.9975H28.4282C28.9822 19.9975 29.4398 19.5878 29.5061 19.0535H29.5121C29.5121 19.0178 29.5121 18.9881 29.5121 18.9525C29.5061 18.9525 29.5121 18.9406 29.5121 18.9347Z" fill="white"/>
</g>
<defs>
<clipPath id="clip0_232_125">
<rect width="104" height="38" fill="white"/>
</clipPath>
</defs>
</svg>
